# xmcd
#
# Track frame offsets: 
#        150
#        27112
#        50325
#        75092
#        95457
#        117435
#        136637
#        154097
#        180872
#
# Disc length: 2706 seconds
#
# Revision: 2
# Processed by: cddbd v1.5.1PL2 Copyright (c) Steve Scherf et al.
# Submitted via: ExactAudioCopy v0.95b4
#
DISCID=580a9009
DTITLE=Ladies first - Dedicated
DYEAR=1991
DGENRE=Blues
TTITLE0=A reason to stay
TTITLE1=Too hurt to love
TTITLE2=The virgins song
TTITLE3=Spread love
TTITLE4=The pale room
TTITLE5=Prayer
TTITLE6=Who cares
TTITLE7=No sophisticated manners
TTITLE8=One step closer
EXTD=
EXTT0=
EXTT1=
EXTT2=
EXTT3=
EXTT4=
EXTT5=
EXTT6=
EXTT7=
EXTT8=
PLAYORDER=
